<mxfile host="app.diagrams.net" modified="2022-04-13T14:14:59.411Z" agent="5.0 (Windows NT 10.0; Win64; x64) AppleWebKit/537.36 (KHTML, like Gecko) Chrome/100.0.4896.75 Safari/537.36" etag="FRP-X8Yueyy2gSyRkZw9" version="14.9.6" type="github">
  <diagram id="NxjSWd_ZQEuJOFBrArFD" name="Page-1">
    <mxGraphModel dx="1422" dy="762" grid="1" gridSize="10" guides="1" tooltips="1" connect="1" arrows="1" fold="1" page="1" pageScale="1" pageWidth="827" pageHeight="1169" math="0" shadow="0">
      <root>
        <mxCell id="0" />
        <mxCell id="1" parent="0" />
        <mxCell id="FBMq1EX0xArF_c1pPOWs-6" value="SincoERP" style="shape=mxgraph.ibm.box;prType=zone;fontStyle=0;verticalAlign=top;align=left;spacingLeft=32;spacingTop=4;fillColor=#E0E0E0;rounded=0;whiteSpace=wrap;html=1;strokeColor=#919191;strokeWidth=1;dashed=0;container=1;spacing=-4;collapsible=0;expand=0;recursiveResize=0;" vertex="1" parent="1">
          <mxGeometry x="460" y="100" width="280" height="130" as="geometry" />
        </mxCell>
        <mxCell id="FBMq1EX0xArF_c1pPOWs-3" value="&lt;br&gt;&lt;br&gt;&lt;br&gt;&lt;br&gt;CBRClientes/Ventas" style="html=1;dashed=0;whitespace=wrap;fillColor=#2875E2;strokeColor=#ffffff;points=[[0.005,0.63,0],[0.1,0.2,0],[0.9,0.2,0],[0.5,0,0],[0.995,0.63,0],[0.72,0.99,0],[0.5,1,0],[0.28,0.99,0]];shape=mxgraph.kubernetes.icon;prIcon=api" vertex="1" parent="FBMq1EX0xArF_c1pPOWs-6">
          <mxGeometry x="190" y="50" width="50" height="48" as="geometry" />
        </mxCell>
        <mxCell id="FBMq1EX0xArF_c1pPOWs-16" value="" style="edgeStyle=orthogonalEdgeStyle;rounded=0;orthogonalLoop=1;jettySize=auto;html=1;" edge="1" parent="FBMq1EX0xArF_c1pPOWs-6" source="FBMq1EX0xArF_c1pPOWs-12" target="FBMq1EX0xArF_c1pPOWs-3">
          <mxGeometry relative="1" as="geometry" />
        </mxCell>
        <mxCell id="FBMq1EX0xArF_c1pPOWs-12" value="&lt;br&gt;&lt;br&gt;&lt;br&gt;&lt;br&gt;Autorizacion" style="html=1;dashed=0;whitespace=wrap;fillColor=#2875E2;strokeColor=#ffffff;points=[[0.005,0.63,0],[0.1,0.2,0],[0.9,0.2,0],[0.5,0,0],[0.995,0.63,0],[0.72,0.99,0],[0.5,1,0],[0.28,0.99,0]];shape=mxgraph.kubernetes.icon;prIcon=api" vertex="1" parent="FBMq1EX0xArF_c1pPOWs-6">
          <mxGeometry x="40" y="50" width="50" height="48" as="geometry" />
        </mxCell>
        <mxCell id="FBMq1EX0xArF_c1pPOWs-5" value="" style="edgeStyle=orthogonalEdgeStyle;rounded=0;orthogonalLoop=1;jettySize=auto;html=1;" edge="1" parent="1" source="FBMq1EX0xArF_c1pPOWs-1" target="FBMq1EX0xArF_c1pPOWs-2">
          <mxGeometry relative="1" as="geometry" />
        </mxCell>
        <mxCell id="FBMq1EX0xArF_c1pPOWs-1" value="Portal Corporativo" style="pointerEvents=1;shadow=0;dashed=0;html=1;strokeColor=none;fillColor=#505050;labelPosition=center;verticalLabelPosition=bottom;verticalAlign=top;outlineConnect=0;align=center;shape=mxgraph.office.concepts.app_for_sharepoint;" vertex="1" parent="1">
          <mxGeometry x="160" y="154" width="53" height="40" as="geometry" />
        </mxCell>
        <mxCell id="FBMq1EX0xArF_c1pPOWs-13" style="edgeStyle=orthogonalEdgeStyle;rounded=0;orthogonalLoop=1;jettySize=auto;html=1;entryX=0.04;entryY=0.5;entryDx=0;entryDy=0;entryPerimeter=0;" edge="1" parent="1" source="FBMq1EX0xArF_c1pPOWs-2" target="FBMq1EX0xArF_c1pPOWs-12">
          <mxGeometry relative="1" as="geometry" />
        </mxCell>
        <mxCell id="FBMq1EX0xArF_c1pPOWs-18" style="edgeStyle=orthogonalEdgeStyle;rounded=0;orthogonalLoop=1;jettySize=auto;html=1;" edge="1" parent="1" source="FBMq1EX0xArF_c1pPOWs-2" target="FBMq1EX0xArF_c1pPOWs-1">
          <mxGeometry relative="1" as="geometry">
            <Array as="points">
              <mxPoint x="335" y="250" />
              <mxPoint x="187" y="250" />
            </Array>
          </mxGeometry>
        </mxCell>
        <mxCell id="FBMq1EX0xArF_c1pPOWs-2" value="&lt;br&gt;&lt;br&gt;&lt;br&gt;&lt;br&gt;&lt;br&gt;ServicioTramites.svc" style="html=1;dashed=0;whitespace=wrap;fillColor=#2875E2;strokeColor=#ffffff;points=[[0.005,0.63,0],[0.1,0.2,0],[0.9,0.2,0],[0.5,0,0],[0.995,0.63,0],[0.72,0.99,0],[0.5,1,0],[0.28,0.99,0]];shape=mxgraph.kubernetes.icon;prIcon=api" vertex="1" parent="1">
          <mxGeometry x="310" y="150" width="50" height="48" as="geometry" />
        </mxCell>
        <mxCell id="FBMq1EX0xArF_c1pPOWs-9" value="" style="edgeStyle=orthogonalEdgeStyle;rounded=0;orthogonalLoop=1;jettySize=auto;html=1;" edge="1" parent="1" source="FBMq1EX0xArF_c1pPOWs-7" target="FBMq1EX0xArF_c1pPOWs-1">
          <mxGeometry relative="1" as="geometry" />
        </mxCell>
        <mxCell id="FBMq1EX0xArF_c1pPOWs-7" value="" style="shape=image;html=1;verticalAlign=top;verticalLabelPosition=bottom;labelBackgroundColor=#ffffff;imageAspect=0;aspect=fixed;image=https://cdn1.iconfinder.com/data/icons/CrystalClear/128x128/kdm/user_male.png" vertex="1" parent="1">
          <mxGeometry x="151.5" y="30" width="70" height="70" as="geometry" />
        </mxCell>
        <mxCell id="FBMq1EX0xArF_c1pPOWs-17" style="edgeStyle=orthogonalEdgeStyle;rounded=0;orthogonalLoop=1;jettySize=auto;html=1;" edge="1" parent="1" source="FBMq1EX0xArF_c1pPOWs-3">
          <mxGeometry relative="1" as="geometry">
            <mxPoint x="335" y="150" as="targetPoint" />
            <Array as="points">
              <mxPoint x="675" y="130" />
              <mxPoint x="335" y="130" />
            </Array>
          </mxGeometry>
        </mxCell>
        <mxCell id="FBMq1EX0xArF_c1pPOWs-19" value="1" style="text;html=1;align=center;verticalAlign=middle;resizable=0;points=[];autosize=1;strokeColor=none;" vertex="1" parent="1">
          <mxGeometry x="250" y="150" width="20" height="20" as="geometry" />
        </mxCell>
        <mxCell id="FBMq1EX0xArF_c1pPOWs-20" value="2" style="text;html=1;align=center;verticalAlign=middle;resizable=0;points=[];autosize=1;strokeColor=none;" vertex="1" parent="1">
          <mxGeometry x="400" y="150" width="20" height="20" as="geometry" />
        </mxCell>
        <mxCell id="FBMq1EX0xArF_c1pPOWs-21" value="3" style="text;html=1;align=center;verticalAlign=middle;resizable=0;points=[];autosize=1;strokeColor=none;" vertex="1" parent="1">
          <mxGeometry x="580" y="154" width="20" height="20" as="geometry" />
        </mxCell>
        <mxCell id="FBMq1EX0xArF_c1pPOWs-22" value="4" style="text;html=1;align=center;verticalAlign=middle;resizable=0;points=[];autosize=1;strokeColor=none;" vertex="1" parent="1">
          <mxGeometry x="400" y="110" width="20" height="20" as="geometry" />
        </mxCell>
        <mxCell id="FBMq1EX0xArF_c1pPOWs-23" value="5" style="text;html=1;align=center;verticalAlign=middle;resizable=0;points=[];autosize=1;strokeColor=none;" vertex="1" parent="1">
          <mxGeometry x="250" y="260" width="20" height="20" as="geometry" />
        </mxCell>
      </root>
    </mxGraphModel>
  </diagram>
</mxfile>
